<svg xmlns="http://www.w3.org/2000/svg" width="35.942" height="23.942" viewBox="0 0 23.942 23.942">
  <path id="Filter_icon" data-name="Filter icon" d="M14.221,3A60.244,60.244,0,0,1,24.3,3.845a1.38,1.38,0,0,1,1.143,1.367v1.3A2.806,2.806,0,0,1,24.621,8.5L17.848,15.27a2.805,2.805,0,0,0-.822,1.984V20.9a2.805,2.805,0,0,1-1.551,2.509l-4.06,2.03V17.253a2.805,2.805,0,0,0-.822-1.984L3.822,8.5A2.805,2.805,0,0,1,3,6.514v-1.3A1.38,1.38,0,0,1,4.143,3.845,60.244,60.244,0,0,1,14.221,3Z" transform="translate(-2.25 -2.25)" fill="none" stroke="#959595" stroke-linecap="round" stroke-linejoin="round" stroke-width="1.5"/>
</svg>
