<svg xmlns="http://www.w3.org/2000/svg" xmlns:xlink="http://www.w3.org/1999/xlink" width="36" height="36" viewBox="0 0 36 36">
  <defs>
    <clipPath id="clip-path">
      <rect id="Rectangle_72" data-name="Rectangle 72" width="18.701" height="18.7" fill="none"/>
    </clipPath>
  </defs>
  <g id="Instagram" transform="translate(0.5 0.5)">
    <rect id="Rectangle" width="34" height="34" fill="none"/>
    <circle id="Oval" cx="17" cy="17" r="17" transform="translate(0.5 0.5)" fill="none" stroke="#fff" stroke-width="2"/>
    <g id="Group_174" data-name="Group 174" transform="translate(8 8)">
      <g id="Group_167" data-name="Group 167" clip-path="url(#clip-path)">
        <path id="Path_74" data-name="Path 74" d="M14.139,18.7H4.578l-.393-.071a5.176,5.176,0,0,1-4.181-5C0,10.78,0,7.935,0,5.089a4.949,4.949,0,0,1,.088-.905A5.173,5.173,0,0,1,5.089,0q4.269-.008,8.537,0a3.84,3.84,0,0,1,.6.037,5.143,5.143,0,0,1,3.956,2.838,5.681,5.681,0,0,1,.519,1.7v9.562c-.019.089-.04.178-.056.267a5.119,5.119,0,0,1-2.74,3.744,5.611,5.611,0,0,1-1.766.551M1.707,9.358h0q0,2.025,0,4.05a5.387,5.387,0,0,0,.034.654,3.47,3.47,0,0,0,3.278,2.944c2.87.01,5.74,0,8.61,0a3.574,3.574,0,0,0,.435-.035A3.465,3.465,0,0,0,17.007,13.7c.01-2.87,0-5.74,0-8.611a3.625,3.625,0,0,0-.035-.435A3.465,3.465,0,0,0,13.7,1.708c-2.87-.009-5.74,0-8.611,0a3.569,3.569,0,0,0-.435.035A3.47,3.47,0,0,0,1.709,5.016c-.01,1.447,0,2.894,0,4.342" transform="translate(0 0)" fill="#fff"/>
        <path id="Path_75" data-name="Path 75" d="M37.478,32.649a4.833,4.833,0,1,1-4.852,4.8,4.844,4.844,0,0,1,4.852-4.8m3.11,4.841a3.127,3.127,0,1,0-3.142,3.116,3.123,3.123,0,0,0,3.142-3.116" transform="translate(-28.103 -28.122)" fill="#fff"/>
        <path id="Path_76" data-name="Path 76" d="M95.991,24.917a1.228,1.228,0,0,1-1.207-1.285,1.236,1.236,0,1,1,2.469.108,1.233,1.233,0,0,1-1.262,1.177" transform="translate(-81.642 -19.333)" fill="#fff"/>
      </g>
    </g>
  </g>
</svg>
