<svg id="logo" xmlns="http://www.w3.org/2000/svg" xmlns:xlink="http://www.w3.org/1999/xlink" width="75.977" height="64.748" viewBox="0 0 75.977 64.748">
  <defs>
    <clipPath id="clip-path">
      <rect id="Rectangle_4" data-name="Rectangle 4" width="75.977" height="64.748" fill="none"/>
    </clipPath>
  </defs>
  <g id="Group_4" data-name="Group 4" clip-path="url(#clip-path)">
    <path id="Path_2" data-name="Path 2" d="M48.387,64.747c-.043-.044-.079-.1-.131-.13a11.456,11.456,0,0,1-5.523-6.267c-.986-2.306-2.945-3.319-5.285-3.8a26.6,26.6,0,0,0-9.067.064c-7.993,1.107-15.859,2.913-23.8,4.292-1.13.2-2.258.411-3.388.605-.4.069-.823.156-1.076-.3a1.113,1.113,0,0,1,.124-1.145,1.862,1.862,0,0,1,.929-.744c5.287-2.4,10.748-4.362,16.178-6.4.291-.109.654-.241.81.144.163.4-.232.521-.5.649-1.117.54-2.248,1.051-3.359,1.6-.4.2-.953.355-.813.971s.683.527,1.143.545a37.914,37.914,0,0,0,6.013-.56c5.2-.624,10.371-1.428,15.823-1.893C30.1,52,23.979,51.5,17.9,50.623c-3.588-.521-7.214-.819-10.749-1.671-.786-.189-1.822-.258-1.787-1.4s1.069-1.143,1.867-1.285c3.724-.664,7.455-1.289,11.179-1.952.587-.1.948-.059,1.055.63a2.062,2.062,0,0,0,1.254,1.528,25.151,25.151,0,0,0,7.553,2.173c-1.419-.61-2.856-1.168-4.219-1.893a4.248,4.248,0,0,1-1.65-1.465,1.315,1.315,0,0,1,.417-2.068,9.733,9.733,0,0,1,2.955-1.092c.429-.1.67.044.681.492a3.123,3.123,0,0,0,1.683,2.523,25.275,25.275,0,0,0,9.336,3.527,31.884,31.884,0,0,0,4.606.635,54.362,54.362,0,0,1-5.2-2.08,22.977,22.977,0,0,1-4.857-3.086,5.688,5.688,0,0,1-1.378-1.74,1.866,1.866,0,0,1,.668-2.666c1.5-.81,3.068-1.485,4.622-2.184.467-.21.561.082.411.469-1.41,3.662,1.145,6.911,3.845,8.61a17.1,17.1,0,0,0,9.081,2.655,31.781,31.781,0,0,0,9.234-.782,20.53,20.53,0,0,0,4.713-1.957c2.89-1.679,4.147-4.371,4.457-7.543.68-6.948-4.575-11.171-9.411-12.091a15.541,15.541,0,0,0-8.919,1.243c-.445.185-1.029.773-1.377.288-.235-.327.473-.781.82-1.1A20.3,20.3,0,0,0,54.905,16.3,65.1,65.1,0,0,1,58.059,6.089,9.678,9.678,0,0,1,62.363.9,6.152,6.152,0,0,1,70.69,2.729c.172.236.524.537.2.788-.265.2-.46-.206-.64-.393C67.2-.053,62.951.349,60.575,4.07a20.462,20.462,0,0,0-2.491,6.776,56.576,56.576,0,0,0-1.462,11.04,3.8,3.8,0,0,0,.187,1.467c.363.947,1.038,1.4,1.965,1.033a4.037,4.037,0,0,1,4.439.992,30.564,30.564,0,0,1,3.121,2.785,3.313,3.313,0,0,0,2.372.917c.766.062.688-.584.629-1.065a24.068,24.068,0,0,1-.305-3.05c0-.258-.11-.657.254-.7.315-.039.4.348.491.6,1.989,5.494,2.383,11,.061,16.507A14.861,14.861,0,0,1,62.9,48.5c-1.9,1.058-3.851,2.016-5.828,2.909-3.653,1.65-6.2,6.825-5.3,10.668a3.132,3.132,0,0,0,.654,1.412c.143.163.31.354.134.573s-.442.183-.679.069a2.224,2.224,0,0,1-1-1.182,11.691,11.691,0,0,1-.73-5.2,10.85,10.85,0,0,1,1.306-5.543,32.86,32.86,0,0,1-5.415.442c-1.737.027-3.475.006-5.243.053a5.22,5.22,0,0,1,4.157,4.756,20.073,20.073,0,0,0,.781,2.868,5.647,5.647,0,0,0,1.975,2.645c.54.441,1.123.922.866,1.779Z" transform="translate(0 0)" fill="#fff"/>
    <path id="Path_3" data-name="Path 3" d="M367.44,26.852a16.792,16.792,0,0,0-2.745-.34c-2.4.082-3.553.914-4.277,3.216-.037.118-.057.242-.1.357-.066.171-.136.409-.34.387-.286-.032-.262-.315-.244-.521a4.511,4.511,0,0,1,2.673-4.133c.728-.313,1.064-.587.389-1.3-.419-.439-.039-.59.342-.626.975-.093,1.4-.564,1.149-1.556-.126-.509.169-.535.521-.379a1.381,1.381,0,0,1,.6.416,9.187,9.187,0,0,0,2.49,2.453,1.985,1.985,0,0,1,.5.659c.582,1.027.387,1.365-.958,1.363" transform="translate(-292.731 -17.803)" fill="#fff"/>
    <path id="Path_4" data-name="Path 4" d="M349.133,13.661a1.545,1.545,0,0,1,.069,3.089,1.634,1.634,0,0,1-1.6-1.506,1.659,1.659,0,0,1,1.533-1.584" transform="translate(-282.865 -11.117)" fill="#fff"/>
  </g>
</svg>
