<svg xmlns="http://www.w3.org/2000/svg" width="25.28" height="25.278" viewBox="0 0 25.28 25.278">
  <path id="search" d="M28.072,24.747,22.026,18.7a9.839,9.839,0,0,0,1.437-5.136,10.428,10.428,0,0,0-10.2-10.2,9.9,9.9,0,0,0-9.9,9.9,10.428,10.428,0,0,0,10.2,10.2,9.84,9.84,0,0,0,4.984-1.35l6.078,6.082a1.525,1.525,0,0,0,2.154,0l1.509-1.509c.594-.594.378-1.344-.216-1.938ZM6.406,13.259a6.851,6.851,0,0,1,6.851-6.853,7.383,7.383,0,0,1,7.158,7.158,6.854,6.854,0,0,1-6.853,6.853,7.386,7.386,0,0,1-7.157-7.158Z" transform="translate(-3.36 -3.362)" fill="#959595"/>
</svg>
